v 2.52953 0.0755 0
v 2.78031 0.2355 0
l 1 2
v 2.83 0.0755 0
v 2.93031 0.2355 0
l 3 4
v 2.52953 4.62304167e-18 0.0755
v 2.78031 1.44202161e-17 0.2355
l 5 6
v 2.83 4.62304167e-18 0.0755
v 2.93031 1.44202161e-17 0.2355
l 7 8
v 2.52953 -0.0755 9.24608333e-18
v 2.78031 -0.2355 2.88404321e-17
l 9 10
v 2.83 -0.0755 9.24608333e-18
v 2.93031 -0.2355 2.88404321e-17
l 11 12
v 2.52953 -1.3869125e-17 -0.0755
v 2.78031 -4.32606482e-17 -0.2355
l 13 14
v 2.83 -1.3869125e-17 -0.0755
v 2.93031 -4.32606482e-17 -0.2355
l 15 16
